<svg width="51" height="18" viewBox="0 0 51 18" fill="none" xmlns="http://www.w3.org/2000/svg">
<path fill-rule="evenodd" clip-rule="evenodd" d="M2.04004 13.909C2.04004 12.3275 3.31871 11.0454 4.89604 11.0454H7.75204V13.909C7.75204 15.4906 6.47336 16.7727 4.89604 16.7727C3.31871 16.7727 2.04004 15.4906 2.04004 13.909ZM4.89604 11.8636C3.76938 11.8636 2.85604 12.7794 2.85604 13.909C2.85604 15.0387 3.76938 15.9545 4.89604 15.9545C6.0227 15.9545 6.93604 15.0387 6.93604 13.909V11.8636H4.89604Z" fill="white"/>
<path fill-rule="evenodd" clip-rule="evenodd" d="M2.04004 8.99999C2.04004 7.41845 3.31871 6.13635 4.89604 6.13635H7.75204V11.8636H4.89604C3.31871 11.8636 2.04004 10.5815 2.04004 8.99999ZM4.89604 6.95453C3.76938 6.95453 2.85604 7.87032 2.85604 8.99999C2.85604 10.1297 3.76938 11.0454 4.89604 11.0454H6.93604V6.95453H4.89604Z" fill="white"/>
<path fill-rule="evenodd" clip-rule="evenodd" d="M6.93604 8.99999C6.93604 7.41845 8.21471 6.13635 9.79204 6.13635C11.3694 6.13635 12.648 7.41845 12.648 8.99999C12.648 10.5815 11.3694 11.8636 9.79204 11.8636C8.21471 11.8636 6.93604 10.5815 6.93604 8.99999ZM9.79204 6.95453C8.66537 6.95453 7.75204 7.87032 7.75204 8.99999C7.75204 10.1297 8.66537 11.0454 9.79204 11.0454C10.9187 11.0454 11.832 10.1297 11.832 8.99999C11.832 7.87032 10.9187 6.95453 9.79204 6.95453Z" fill="white"/>
<path fill-rule="evenodd" clip-rule="evenodd" d="M2.04004 4.09093C2.04004 2.50939 3.31871 1.22729 4.89604 1.22729H7.75204V6.95457H4.89604C3.31871 6.95457 2.04004 5.67247 2.04004 4.09093ZM4.89604 2.04548C3.76938 2.04548 2.85604 2.96126 2.85604 4.09093C2.85604 5.2206 3.76938 6.13638 4.89604 6.13638H6.93604V2.04548H4.89604Z" fill="white"/>
<path fill-rule="evenodd" clip-rule="evenodd" d="M6.93604 1.22729H9.79204C11.3694 1.22729 12.648 2.50939 12.648 4.09093C12.648 5.67247 11.3694 6.95457 9.79204 6.95457H6.93604V1.22729ZM7.75204 2.04548V6.13638H9.79204C10.9187 6.13638 11.832 5.2206 11.832 4.09093C11.832 2.96126 10.9187 2.04548 9.79204 2.04548H7.75204Z" fill="white"/>
<path fill-rule="evenodd" clip-rule="evenodd" d="M14.28 4.03156C14.28 2.48132 15.5378 1.22729 17.0861 1.22729H19.584C22.5119 1.22729 24.888 3.59835 24.888 6.52653C24.888 9.4547 22.5119 11.8258 19.584 11.8258C18.0082 11.8258 16.728 10.5494 16.728 8.9716V8.9217C16.728 8.14525 17.0436 7.44311 17.5531 6.93562H17.136C15.5602 6.93562 14.28 5.65926 14.28 4.08146V4.03156ZM19.5341 6.11744V6.93562C18.4335 6.93562 17.544 7.82631 17.544 8.9217V8.9716C17.544 10.0946 18.4559 11.0076 19.584 11.0076C22.0642 11.0076 24.072 8.99985 24.072 6.52653C24.072 4.0532 22.0642 2.04548 19.584 2.04548H17.0861C15.9855 2.04548 15.096 2.93617 15.096 4.03156V4.08146C15.096 5.20441 16.0079 6.11744 17.136 6.11744H19.5341Z" fill="white"/>
<path fill-rule="evenodd" clip-rule="evenodd" d="M16.9767 7.77174C15.8383 8.58978 15.096 9.92938 15.096 11.4437V13.9037C15.096 15.0372 16.0102 15.9546 17.136 15.9546H22.032C23.1578 15.9546 24.072 15.0372 24.072 13.9037C24.072 12.7702 23.1578 11.8528 22.032 11.8528H19.584C18.0059 11.8528 16.728 10.5674 16.728 8.98374V8.93354C16.728 8.5194 16.8169 8.12605 16.9767 7.77174ZM14.28 11.4437C14.28 8.56185 16.5572 6.21311 19.4042 6.11768L19.4373 6.93516C18.3842 6.98567 17.544 7.86041 17.544 8.93354V8.98374C17.544 10.1173 18.4582 11.0346 19.584 11.0346H22.032C23.6102 11.0346 24.888 12.32 24.888 13.9037C24.888 15.4874 23.6102 16.7728 22.032 16.7728H17.136C15.5579 16.7728 14.28 15.4874 14.28 13.9037V11.4437Z" fill="white"/>
<path fill-rule="evenodd" clip-rule="evenodd" d="M37.1279 13.909C37.1279 12.3275 35.8493 11.0454 34.2719 11.0454H31.4159V13.909C31.4159 15.4906 32.6946 16.7727 34.2719 16.7727C35.8493 16.7727 37.1279 15.4906 37.1279 13.909ZM34.2719 11.8636C35.3986 11.8636 36.3119 12.7794 36.3119 13.909C36.3119 15.0387 35.3986 15.9545 34.2719 15.9545C33.1453 15.9545 32.2319 15.0387 32.2319 13.909V11.8636H34.2719Z" fill="white"/>
<path fill-rule="evenodd" clip-rule="evenodd" d="M31.824 2.04548C29.3454 2.04548 27.336 4.06019 27.336 6.54548V11.0455H31.824C34.3027 11.0455 36.312 9.03076 36.312 6.54548C36.312 4.06019 34.3027 2.04548 31.824 2.04548ZM26.52 6.54548C26.52 3.60833 28.8947 1.22729 31.824 1.22729C34.7533 1.22729 37.128 3.60833 37.128 6.54548C37.128 9.48262 34.7533 11.8637 31.824 11.8637H26.52V6.54548Z" fill="white"/>
<path fill-rule="evenodd" clip-rule="evenodd" d="M26.52 11.0454H32.232V13.909C32.232 15.4906 30.9533 16.7727 29.376 16.7727C27.7987 16.7727 26.52 15.4906 26.52 13.909V11.0454ZM27.336 11.8636V13.909C27.336 15.0387 28.2494 15.9545 29.376 15.9545C30.5027 15.9545 31.416 15.0387 31.416 13.909V11.8636H27.336Z" fill="white"/>
<path fill-rule="evenodd" clip-rule="evenodd" d="M26.52 11.7727H32.232V8.90907C32.232 7.32753 30.9533 6.04543 29.376 6.04543C27.7987 6.04543 26.52 7.32753 26.52 8.90907V11.7727ZM27.336 10.9545V8.90907C27.336 7.7794 28.2494 6.86362 29.376 6.86362C30.5027 6.86362 31.416 7.7794 31.416 8.90907V10.9545H27.336Z" fill="white"/>
<path fill-rule="evenodd" clip-rule="evenodd" d="M43.86 6.95453C42.8059 6.95453 41.922 7.85373 41.922 8.99999V9.05008C41.922 10.1687 42.7844 11.0454 43.8121 11.0454V11.8636H41.514C40.4599 11.8636 39.576 12.7628 39.576 13.9091V13.9592C39.576 15.0778 40.4384 15.9545 41.4661 15.9545H43.86C46.2098 15.9545 48.144 13.9564 48.144 11.4545C48.144 8.95267 46.2098 6.95453 43.86 6.95453ZM41.9042 11.0454H41.514C39.9768 11.0454 38.76 12.3441 38.76 13.9091V13.9592C38.76 15.4965 39.9554 16.7727 41.4661 16.7727H43.86C46.6929 16.7727 48.96 14.3751 48.96 11.4545C48.96 8.53397 46.6929 6.13635 43.86 6.13635C42.3228 6.13635 41.106 7.43503 41.106 8.99999V9.05008C41.106 9.82482 41.4096 10.5333 41.9042 11.0454Z" fill="white"/>
<path fill-rule="evenodd" clip-rule="evenodd" d="M38.7781 4.09569C38.7781 2.53039 39.9887 1.22729 41.523 1.22729H43.86C46.685 1.22729 48.9419 3.63146 48.9419 6.555C48.9419 7.49457 48.7096 8.37913 48.3007 9.14744L47.9494 9.80758L47.5848 9.15474C47.0715 8.23566 46.2296 7.52616 45.2199 7.18591L45.2154 7.18438C44.7898 7.03537 44.3342 6.95456 43.86 6.95456C43.8023 6.95456 43.7453 6.95721 43.6891 6.96238L43.6705 6.96409H41.523C39.9887 6.96409 38.7781 5.66099 38.7781 4.09569ZM41.523 2.04548C40.4761 2.04548 39.5941 2.94452 39.5941 4.09569C39.5941 5.24686 40.4761 6.1459 41.523 6.1459H43.6339C43.7086 6.13959 43.784 6.13637 43.86 6.13637C44.4265 6.13637 44.9722 6.23286 45.4821 6.41111C46.435 6.73271 47.261 7.32934 47.8667 8.10669C48.0343 7.62345 48.1259 7.10097 48.1259 6.555C48.1259 4.04559 46.1976 2.04548 43.86 2.04548H41.523Z" fill="white"/>
</svg>
