<svg width="24" height="24" viewBox="0 0 24 24" fill="none" xmlns="http://www.w3.org/2000/svg">
<path fill-rule="evenodd" clip-rule="evenodd" d="M10 2.25H15C18.7279 2.25 21.75 5.27208 21.75 9C21.75 10.0776 21.4975 11.0963 21.0484 12C21.4975 12.9037 21.75 13.9224 21.75 15C21.75 18.7279 18.7279 21.75 15 21.75H10C5.71979 21.75 2.25 18.2802 2.25 14V10C2.25 5.71979 5.71979 2.25 10 2.25ZM11.9388 20.25H15C17.8995 20.25 20.25 17.8995 20.25 15C20.25 12.1005 17.8995 9.75 15 9.75C13.7574 9.75 12.75 10.7574 12.75 12V12.0612C12.75 13.2701 13.7299 14.25 14.9388 14.25C15.353 14.25 15.6888 14.5858 15.6888 15C15.6888 15.4142 15.353 15.75 14.9388 15.75H12C10.7574 15.75 9.75 16.7574 9.75 18V18.0612C9.75 19.2701 10.7299 20.25 11.9388 20.25ZM8.90043 20.1536C5.97302 19.634 3.75 17.0766 3.75 14V10C3.75 6.92338 5.97301 4.36598 8.90042 3.84641C8.49021 4.44095 8.25 5.16181 8.25 5.93878V6C8.25 8.06084 9.91239 9.7334 11.9693 9.74988C11.5172 10.3622 11.25 11.1193 11.25 11.9388V12.0612C11.25 12.8807 11.5172 13.6378 11.9693 14.2501C9.91239 14.2666 8.25 15.9392 8.25 18V18.0612C8.25 18.8382 8.49022 19.559 8.90043 20.1536ZM11.9388 3.75C10.7299 3.75 9.75 4.72995 9.75 5.93878V6C9.75 7.24264 10.7574 8.25 12 8.25H14.9388L14.9577 8.25023L15 8.25C16.9997 8.25 18.7962 9.11954 20.0323 10.5011C20.1739 10.0255 20.25 9.52164 20.25 9C20.25 6.1005 17.8995 3.75 15 3.75H11.9388Z" fill="white"/>
</svg>
