<svg width="24" height="24" viewBox="0 0 24 24" fill="none" xmlns="http://www.w3.org/2000/svg">
<path fill-rule="evenodd" clip-rule="evenodd" d="M5.25 6C5.25 3.92893 6.92893 2.25 9 2.25H11.25H12.75H15C17.0711 2.25 18.75 3.92893 18.75 6C18.75 7.2267 18.161 8.31583 17.2504 9C18.161 9.68417 18.75 10.7733 18.75 12C18.75 14.0711 17.0711 15.75 15 15.75C14.1558 15.75 13.3767 15.471 12.75 15.0003V15.75V18C12.75 20.0711 11.0711 21.75 9 21.75C6.92893 21.75 5.25 20.0711 5.25 18C5.25 16.7733 5.83901 15.6842 6.74964 15C5.83901 14.3158 5.25 13.2267 5.25 12C5.25 10.7733 5.83901 9.68417 6.74963 9C5.83901 8.31583 5.25 7.2267 5.25 6ZM11.25 8.25V3.75H9C7.75736 3.75 6.75 4.75736 6.75 6C6.75 7.24264 7.75736 8.25 9 8.25H11.25ZM15 8.25C16.2426 8.25 17.25 7.24264 17.25 6C17.25 4.75736 16.2426 3.75 15 3.75H12.75V8.25H15ZM9 9.75H11.25V12V14.25H9C7.75736 14.25 6.75 13.2426 6.75 12C6.75 10.7574 7.75736 9.75 9 9.75ZM12.75 12C12.75 13.2426 13.7574 14.25 15 14.25C16.2426 14.25 17.25 13.2426 17.25 12C17.25 10.7574 16.2426 9.75 15 9.75C13.7574 9.75 12.75 10.7574 12.75 12ZM9 15.75H11.25V18C11.25 19.2426 10.2426 20.25 9 20.25C7.75736 20.25 6.75 19.2426 6.75 18C6.75 16.7574 7.75736 15.75 9 15.75Z" fill="white"/>
</svg>
